<svg xmlns="http://www.w3.org/2000/svg" viewBox="0 0 512 512.00001" width="512" height="512"><title>Temps</title><g stroke-linejoin="round" stroke-linecap="round"><path d="M263.063 55.856l-2.59 175.22 111.35 136.38c137.4-127.202 42.505-311.162-108.757-311.604z" stroke-dashoffset="3.003" stroke-width="9.126" stroke="#ccc" fill="#ccc"/><path d="M263.22 43.87l-.63 202.686 104.89 195.12C558.722 295.943 465.17 50.728 263.22 43.87z" fill="#2bc737" stroke="#c5e1ac" stroke-width="12.014" stroke-dashoffset="3.003"/><path d="M480.178 255.723c1.818 104.464-79.882 198.735-178.98 216.69-101.69 22.622-215.19-35.48-253.73-135.612-37.235-88.58-5.605-198.855 70.226-255.064 87.294-70.045 223.723-60.786 300.567 21.41 39.06 40.04 62.226 95.822 61.916 152.578z" stroke-width="9.126" stroke="#689f38" fill="none"/><path d="M259.87 399.782l.467 71.098M35.407 256.453l75.447.935m144.543-219.83l-.64 78.756M398.04 254.536l77.85-1.69" stroke-width="9.126" stroke="#689f38" fill-rule="evenodd" fill="#fff"/><path d="M362.677 63.477l-13.69 25.604m95.827 54.755l-22.816 16.312m27.38 200.256l-22.817-11.225m-59.32 95.826l-9.125-20.728M145.88 445.003l16.038-27.38m-100.41-54.757l22.816-13.69m-24.778-200.78l29.343 20.38M143.643 66.26l13.69 24.833" stroke-dashoffset="3.003" stroke-width="9.126" stroke="#689f38" fill="none"/></g></svg>